<?xml version="1.0" encoding="iso-8859-1"?>
<!-- Generator: Adobe Illustrator 18.0.0, SVG Export Plug-In . SVG Version: 6.00 Build 0)  -->
<!-- Icon made by <a href="https://www.freepik.com/">Freepik</a> from <a href="https://www.flaticon.com/">www.flaticon.com</a> -->
<!-- licensed by <a href="http://creativecommons.org/licenses/by/3.0/" title="Creative Commons BY 3.0">CC 3.0 BY</a> -->
<!DOCTYPE svg PUBLIC "-//W3C//DTD SVG 1.1//EN" "http://www.w3.org/Graphics/SVG/1.1/DTD/svg11.dtd">
<svg version="1.1" id="Capa_1" xmlns="http://www.w3.org/2000/svg" xmlns:xlink="http://www.w3.org/1999/xlink" x="0px" y="0px"
	 viewBox="0 0 297 297" style="enable-background:new 0 0 297 297;" xml:space="preserve">
<g>
	<path d="M167.959,224.87H69.036c-3.899,0-7.059,3.16-7.059,7.059v49.461c0,3.899,3.16,7.059,7.059,7.059h98.923
		c3.899,0,7.059-3.16,7.059-7.059V231.93C175.018,228.031,171.858,224.87,167.959,224.87z"/>
	<path d="M289.941,224.87h-98.924c-3.899,0-7.059,3.16-7.059,7.059v49.461c0,3.899,3.16,7.059,7.059,7.059h98.924
		c3.899,0,7.059-3.16,7.059-7.059V231.93C297,228.031,293.84,224.87,289.941,224.87z"/>
	<path d="M69.036,144.236h98.923c3.899,0,7.059-3.16,7.059-7.059v-49.46c0-3.899-3.16-7.059-7.059-7.059H69.036
		c-3.899,0-7.059,3.16-7.059,7.059v49.46C61.977,141.075,65.137,144.236,69.036,144.236z"/>
	<path d="M289.941,80.656h-98.924c-3.899,0-7.059,3.16-7.059,7.059v49.46c0,3.899,3.16,7.059,7.059,7.059h98.924
		c3.899,0,7.059-3.16,7.059-7.059v-49.46C297,83.817,293.84,80.656,289.941,80.656z"/>
	<path d="M128.508,72.129h98.924c3.899,0,7.059-3.16,7.059-7.059v-49.46c0-3.899-3.16-7.059-7.059-7.059h-98.924
		c-3.899,0-7.059,3.16-7.059,7.059v49.46C121.449,68.968,124.609,72.129,128.508,72.129z"/>
	<path d="M123.495,159.822v49.462c0,3.899,3.16,7.059,7.059,7.059h98.923c3.899,0,7.059-3.16,7.059-7.059v-49.462
		c0-3.899-3.16-7.059-7.059-7.059h-98.923C126.655,152.762,123.495,155.923,123.495,159.822z"/>
	<path d="M113.042,209.284v-49.462c0-3.899-3.16-7.059-7.059-7.059H7.059c-3.899,0-7.059,3.16-7.059,7.059v49.462
		c0,3.899,3.16,7.059,7.059,7.059h98.924C109.882,216.344,113.042,213.183,113.042,209.284z"/>
</g>
</svg>
