<svg version="1" xmlns="http://www.w3.org/2000/svg" width="666.667" height="666.667" viewBox="0 0 500.000000 500.000000"><path d="M132.3 76.9C88.6 106.2 57 152.5 45.6 204.1c-2.4 11-3.9 22.4-5.1 37.5l-.5 7.2 14.3.6c7.8.3 40.6.7 72.8.9l58.6.2 1.5-9.9c2.2-13.8 8.2-25.8 17.7-35.3 3.8-3.8 8.5-7.7 10.5-8.8 2.2-1.2 3.4-2.5 3.1-3.3-.3-.7-10.5-18.1-22.8-38.5-12.3-20.5-28.6-48.1-36.3-61.5-7.6-13.3-14.2-24.2-14.6-24.2-.4 0-6 3.6-12.5 7.9zM337 99.2c-9.5 16.7-26.1 44.7-36.7 62.2-10.6 17.5-19.3 32.2-19.3 32.5 0 .3 1.9 1.7 4.2 3.1 2.2 1.4 7 5.4 10.5 8.9 8.9 9 14.9 21.2 17.1 34.7l1.5 9.9 61.6-.3c33.9-.1 66.6-.5 72.8-.8l11.2-.6-.5-8.1c-3-44.9-16.8-83.1-42.6-117.5-13.7-18.2-37-39.5-55.3-50.6-3.3-2-6.2-3.6-6.5-3.6-.3 0-8.4 13.6-18 30.2zM242.6 209.1c-21.2 3.5-37.4 26.1-33.7 47 3.1 18.1 17.1 32.1 34.9 34.9 22.1 3.6 43.6-12.3 47.3-34.9 3.5-21.8-12.4-43.5-34.6-47.1-6.7-1.1-7-1.1-13.9.1zM184.3 363.7c-18.3 32.4-34.4 60.9-35.8 63.5l-2.6 4.7 6.3 3.4c15.1 8.4 37.1 16.2 57 20.1 43.8 8.8 91.4 2.9 131.3-16.4 5.5-2.7 10.8-5.4 11.8-6.2 1.6-1.2-1.2-6.4-33.9-64.3-19.6-34.7-35.8-63.1-35.9-63.3-.2-.2-1.4.3-2.7 1.2-1.2.8-5.9 2.7-10.3 4.2-6.9 2.4-9.6 2.8-19.5 2.8s-12.6-.4-19.5-2.8c-4.4-1.5-9-3.4-10.2-4.2-1.2-.8-2.4-1.4-2.6-1.4-.2 0-15.2 26.4-33.4 58.7z"/></svg>